# xmcd
#
# Track frame offsets:
#	150
#	21217
#	47487
#	72480
#	97165
#	121275
#	147670
#	173865
#	196197
#
# Disc length: 2841
#
# Revision: 1
# Processed by: cddbd v1.5.1PL0 Copyright (c) Steve Scherf et al.
# Submitted via: dBpowerAMP V4.0
# Normalized: r0:TRMNUM
#
DISCID=830b1709
DTITLE=Samy y Sandra Sandoval - Echando 'pa lante
DYEAR=2000
DGENRE=Tipico
TTITLE0=El Echa pa' lante y ella pa' tras
TTITLE1=Todavia te quiero
TTITLE2=Despues no te lamentes
TTITLE3=A que no te atreves
TTITLE4=No nos comprendemos
TTITLE5=Te dolera
TTITLE6=La intrusa
TTITLE7=Te soltare las riendas
TTITLE8=La niña marquela
EXTD=Tipico Panameño
EXTT0=
EXTT1=
EXTT2=
EXTT3=
EXTT4=
EXTT5=
EXTT6=
EXTT7=
EXTT8=
PLAYORDER=
